<?xml version="1.0" encoding="UTF-8"?>
<svg id="Layer_1" data-name="Layer 1" xmlns="http://www.w3.org/2000/svg" viewBox="0 0 86.29 62.17">
  <defs>
    <style>
      .cls-1 {
        fill: #fff;
        stroke-width: 0px;
      }
    </style>
  </defs>
  <path class="cls-1" d="m38.84,51.83c1.4,0,2.53,1.14,2.52,2.53,0,1.4-1.14,2.53-2.53,2.52s-2.53-1.14-2.52-2.53c0-1.4,1.14-2.53,2.53-2.52h0m39.64-15.63c-1.4,0-2.53-1.13-2.53-2.53,0-1.4,1.13-2.53,2.53-2.53s2.53,1.13,2.53,2.53c0,1.4-1.13,2.53-2.53,2.53m0-10.34c-4.32,0-7.81,3.5-7.82,7.82,0,.84.14,1.67.41,2.48l-25.82,13.75c-1.45-2.11-3.85-3.37-6.41-3.37-2.98,0-5.7,1.71-7.01,4.37l-23.2-12.23c-2.45-1.29-4.29-5.32-4.09-9,.1-1.92.76-3.41,1.77-3.98.64-.36,1.41-.33,2.23.1l.15.08c6.15,3.24,26.26,13.83,27.11,14.22,1.31.61,2.03.85,4.26-.2l41.58-21.62c.61-.23,1.32-.82,1.32-1.7,0-1.23-1.27-1.72-1.28-1.72-2.37-1.13-6-2.83-9.55-4.49-7.58-3.55-16.17-7.57-19.94-9.55-3.26-1.7-5.88-.27-6.35.02l-.91.45C27.97,9.69,5.25,20.94,3.95,21.73,1.64,23.14.21,25.95.02,29.43c-.29,5.53,2.53,11.29,6.56,13.4l24.53,12.65c.56,3.84,3.85,6.69,7.73,6.69,4.27,0,7.74-3.43,7.81-7.69l27.02-14.64c1.37,1.07,3.07,1.66,4.81,1.66,4.32,0,7.81-3.5,7.82-7.82,0-4.32-3.5-7.81-7.82-7.82"/>
</svg>