<?xml version="1.0" encoding="UTF-8"?>
<svg id="Layer_1" data-name="Layer 1" xmlns="http://www.w3.org/2000/svg" viewBox="0 0 69.7 80.15">
  <defs>
    <style>
      .cls-1 {
        fill: #fff;
        fill-rule: evenodd;
        stroke-width: 0px;
      }
    </style>
  </defs>
  <path class="cls-1" d="m25.92,4.53c-4.77,2.49-8.68,4.59-8.68,4.68,0,.22,11.46,6.02,11.87,6.01.18,0,1.53-.62,2.98-1.37l2.65-1.36,2.89,1.49,2.89,1.49,4.73-2.13c7.13-3.2,7.87-3.56,7.75-3.67-.15-.16-2.71-1.53-9.65-5.18-3.35-1.77-6.61-3.5-7.23-3.85C35.49.28,34.89,0,34.79,0s-4.1,2.04-8.87,4.53h0ZM4.98,15.38L0,17.94v11.27c0,6.2.07,11.27.15,11.27s2.53-1.06,5.43-2.36l5.29-2.36v-11.88l2.58,1.41c1.99,1.08,3.98,2.17,5.98,3.25l3.39,1.84,1.51-.68c.95-.43,1.89-.86,2.84-1.3.73-.34,2.52-1.15,3.98-1.79,1.46-.65,2.81-1.3,3-1.44.25-.2-2.85-1.91-11.46-6.34-6.5-3.34-12.02-6.06-12.28-6.04s-2.7,1.18-5.43,2.59h0Zm48.91.72c-3.39,1.53-6.16,2.84-6.16,2.91,0,.07,1.84,1.17,4.1,2.44,2.26,1.27,4.11,2.37,4.11,2.45s-2,1.05-4.44,2.15c-2.44,1.1-8.61,3.89-13.72,6.19l-17.1,7.73c-4.3,1.94-8.18,3.7-8.61,3.89-8.78,3.98-11.2,5.08-11.53,5.27-.33.19-.41,1.3-.47,6.86l-.07,6.63,4.44,2.26,4.44,2.26,6.16-2.78c3.39-1.53,6.16-2.86,6.16-2.96s-.63-.51-1.39-.91c-.77-.4-2.35-1.29-3.51-1.97-1.17-.69-2.33-1.31-2.58-1.4-.26-.08-.46-.23-.46-.32,0-.09,2.72-1.38,6.03-2.86,6.43-2.88,11.36-5.09,21.93-9.87,4.73-2.14,9.45-4.27,14.18-6.41,4.16-1.88,8.99-4.07,10.74-4.87l3.18-1.46.07-6.71.07-6.71-4.51-2.31c-2.48-1.27-4.6-2.31-4.71-2.31-.11,0-2.97,1.26-6.36,2.79h0Zm14.22,24.2c-.66.32-1.98.93-2.92,1.35s-2.72,1.22-3.96,1.79l-2.25,1.03-.05,5.89c-.03,3.24-.15,5.87-.27,5.86-.27-.04-4.49-2.21-8.73-4.48-3.06-1.64-3.26-1.71-3.98-1.35-.42.21-2.9,1.32-5.53,2.48-2.62,1.16-4.86,2.18-4.96,2.27-.1.09,5.18,2.96,11.74,6.36l11.93,6.19,5.1-2.64c2.8-1.45,5.18-2.77,5.29-2.94.25-.37.23-22.46-.02-22.43-.1.01-.72.29-1.39.61h0Zm-28.22,25.92c-.88.38-1.77.76-2.65,1.14-2.67,1.15-2.14,1.19-5.32-.39-2.11-1.05-3.02-1.38-3.42-1.22-.3.12-2.85,1.27-5.67,2.55-2.82,1.29-5.23,2.34-5.35,2.34-1.18,0,.78,1.18,8.39,5.01l8.91,4.5,3.75-1.85c2.06-1.02,6.22-3.06,9.25-4.53,3.02-1.47,5.46-2.72,5.41-2.77-.05-.05-2.58-1.35-5.63-2.89l-5.54-2.8-2.12.91Z"/>
</svg>