<?xml version="1.0" encoding="UTF-8"?>
<svg id="Layer_1" data-name="Layer 1" xmlns="http://www.w3.org/2000/svg" viewBox="0 0 91.26 76.05">
  <defs>
    <style>
      .cls-1 {
        fill: #fff;
        stroke-width: 0px;
      }
    </style>
  </defs>
  <path class="cls-1" d="m83.48.67s8.44-3.29,7.74,4.7c-.23,3.29-2.34,14.81-3.99,27.28l-5.63,36.92s-.47,5.41-4.69,6.35c-4.22.94-10.55-3.29-11.73-4.23-.94-.71-17.59-11.29-23.45-16.46-1.64-1.41-3.52-4.23.23-7.52l24.62-23.51c2.81-2.82,5.63-9.41-6.1-1.41l-32.83,22.34s-3.75,2.35-10.79.24l-15.24-4.7s-5.63-3.53,3.99-7.05C29.07,22.54,57.92,11.25,83.48.67Z"/>
</svg>